<svg id="Layer_1" data-name="Layer 1" xmlns="http://www.w3.org/2000/svg" viewBox="0 0 459.57 562.06"><defs><style>.cls-1{fill:#39b54a;}.cls-2{fill:#ee236b;}.cls-3{fill:#9e1f63;}.cls-4{fill:#f15a29;}.cls-5{fill:#1c75bc;}.cls-6{fill:#fbb040;}.cls-7{fill:#a252a0;}.cls-8{fill:#ec0c8d;}.cls-9{fill:#00aaec;stroke:#231f20;stroke-miterlimit:10;}</style></defs><path class="cls-1" d="M635,297.64c-205.17-94.85-90.91,100.6-195.25,172.16-138.61,95.05-232-175.26-187.08-183.46,129.68-23.66,20.21-160.82,184.64-183.46C603.79,80,732.62,342.78,635,297.64Z" transform="translate(-209.18 -14.78)"/><path class="cls-2" d="M345.11,41.35l16.61-6.88,24.11,58.16,13.77-5.7,8.57,20.69-30.38,12.59ZM400.06,99.9l-1.18-2.84-16.76,7L358.46,46.9l-1.95.81,24.84,59.94Z" transform="translate(-209.18 -14.78)"/><path class="cls-3" d="M411.16,41.44l12.77-2.2,31.24,60.39-16.76,2.9-2.75-5.45-16.12,2.79-.77,6L402,108.82Zm1.42,57.66.69-5,26.34-4.55L442,94l2.24-.38-23.8-45.9-3,.52-7,51.23Zm6.69-48.8,19.22,37-24.9,4.31Zm9.49,33.48-5.53-10.59L421.57,85Z" transform="translate(-209.18 -14.78)"/><path class="cls-4" d="M466.69,64.73,454.37,14.78l19.12,1.74,4.59,18.53,7.75-17.42L505,19.36,483.87,66.29l-3.31,36.58-17.18-1.56ZM474,92l2.76-30.46,14.87-33.09-2.5-.23L476.05,57.48l-7.68-31.15L466,26.11l8.61,35.22L471.8,91.79Z" transform="translate(-209.18 -14.78)"/><path class="cls-5" d="M513.58,43.21l17.12,5.5L516.07,94.24l14.19,4.55-5.2,16.2-31.31-10.06Zm9.54,63,.71-2.22-17.27-5.55,14.36-44.7-2-.64L503.84,100Z" transform="translate(-209.18 -14.78)"/><path class="cls-6" d="M579.45,47.29l11.34,6.28-23.4,84.61L552.51,130l2.16-7.58-14.32-7.93-5.27,5.86-14.89-8.24ZM535.71,109l4.44-4.85L563.54,117l-1.75,6.34,2,1.1,17.73-64.34-2.69-1.49-45.1,49.2Zm43-46.87L564.39,114l-22.11-12.24Zm-18.87,41.63,4.06-14.87-10.44,11.34Z" transform="translate(-209.18 -14.78)"/><path class="cls-6" d="M528,504.87l-15,14.87a18.32,18.32,0,0,1-6.3,4.17,15.49,15.49,0,0,1-7.15,1,20.78,20.78,0,0,1-7.69-2.48,33.59,33.59,0,0,1-8-6.2,32,32,0,0,1-4.44-5.41,37.68,37.68,0,0,1-2.4-4.38,16.22,16.22,0,0,1-1.26-4.15,18.86,18.86,0,0,1-5.54-1,33.89,33.89,0,0,1-5.91-2.8,35.13,35.13,0,0,1-7.11-5.75,41.9,41.9,0,0,1-6.85-8.88A26.19,26.19,0,0,1,447.1,475a17.15,17.15,0,0,1,.65-8.21,18,18,0,0,1,4.54-7.1L468,444.19Zm-66.89-39.5q-5.06,5-4.06,10.86t6.67,11.58a20.76,20.76,0,0,0,6.9,5,19.14,19.14,0,0,0,5.63,1.36,10.81,10.81,0,0,0,5.15-1.13,9.54,9.54,0,0,0-.5,4.45,16.28,16.28,0,0,0,1.44,5,21,21,0,0,0,4.4,6q5.67,5.73,10.85,6.36a10.64,10.64,0,0,0,9.16-3.3l8.29-8.2L469.4,457.17Zm9-4.54,20.61,20.83-6.74,6.67A12.62,12.62,0,0,1,480,491a10.16,10.16,0,0,1-4.48.83,12.19,12.19,0,0,1-5-1.43,21.34,21.34,0,0,1-5.34-4.08q-5.49-5.55-5.59-10.31a11.32,11.32,0,0,1,3.7-8.52Zm-1.22,10.75q-4.38,4.32.84,9.6t9.6.95l1.38-1.37-10.44-10.55Zm24,12.27,18.54,18.74-6.79,6.72q-3.75,3.7-7.95,2.73a20.8,20.8,0,0,1-13.41-13.55q-.93-4.22,2.82-7.92Zm.76,18.51c2.76,2.78,5.11,3.23,7,1.33l1.39-1.37L493.71,494l-1.38,1.37Q489.45,498.17,493.59,502.36Z" transform="translate(-209.18 -14.78)"/><path class="cls-5" d="M469.65,528.39l-15.9,8.39-22.33-42.29-13.18,7-7.94-15,29.09-15.36Zm-51.71-37.22,1.09,2.06,16.05-8.47L457,526.28l1.86-1-23-43.58Z" transform="translate(-209.18 -14.78)"/><path class="cls-4" d="M392.42,487.06a20.39,20.39,0,0,1,9.43.76,18.87,18.87,0,0,1,7.83,5.12,30.58,30.58,0,0,1,5.87,9.65A60.32,60.32,0,0,1,419.13,517l7.45,53.75-17.09,2.37-7.29-52.61a15.83,15.83,0,0,0-2.1-6.62,4.44,4.44,0,0,0-7.78,1.07,15.83,15.83,0,0,0-.23,7l7.29,52.61-17.17,2.38-7.44-53.76a60.31,60.31,0,0,1-.46-14.79,30.06,30.06,0,0,1,3.07-10.89,19.26,19.26,0,0,1,6.18-7.06A20.44,20.44,0,0,1,392.42,487.06Zm2.11,15.21q12-1.66,14.62,17L415.06,562l2.09-.29L411.23,519q-1.47-10.65-5.9-15.79a12.69,12.69,0,0,0-21,2.91q-2.91,6.15-1.44,16.8l5.92,42.72,2.16-.3-5.91-42.72Q382.5,503.94,394.53,502.27Z" transform="translate(-209.18 -14.78)"/><path class="cls-3" d="M355.91,553.55,325.26,545l4.58-16.38,14,3.92,1.93-6.93L332,521.73l4.34-15.54,13.81,3.87,2-7.21-14.59-4.08,4.58-16.38,31.2,8.72Zm-10.06-62.06-.63,2.25,15.6,4.36-5.73,20.5-14.82-4.14-.63,2.24,14.82,4.15-5.65,20.22L333.2,536.7l-.62,2.25,17.63,4.93,13.27-47.46Z" transform="translate(-209.18 -14.78)"/><path class="cls-2" d="M300.54,555.61l-16-9.25,32.51-50.69,11.21,6.5Zm17.26-50.2L296.45,542.3l1.69,1,21.34-36.88Zm14.3-5.47-15-8.68,10.7-18.5,15,8.68Zm-4.71-16.77-1.47,2.54,6.59,3.82L334,487Z" transform="translate(-209.18 -14.78)"/><path class="cls-7" d="M504.68,325.52" transform="translate(-209.18 -14.78)"/><circle class="cls-8" cx="350.04" cy="327.4" r="37.88"/><path class="cls-8" d="M247.44,212.38c-11.31-9.63-16.57-22-11.75-27.67s17.88-2.43,29.19,7.2,43.1,44.62,38.28,50.27S258.75,222,247.44,212.38Z" transform="translate(-209.18 -14.78)"/><path class="cls-8" d="M280.82,178.32c-3.35-14.47-.2-27.56,7-29.23s15.81,8.7,19.16,23.17,8.05,61.51.81,63.18S284.17,192.79,280.82,178.32Z" transform="translate(-209.18 -14.78)"/><path class="cls-8" d="M232.36,246.44c-14.44-3.48-24.73-12.16-23-19.38s14.86-10.25,29.3-6.76,58.61,20.33,56.87,27.55S246.8,249.92,232.36,246.44Z" transform="translate(-209.18 -14.78)"/><polygon class="cls-9" points="349 356.62 340.55 337.23 319.78 333.19 335.61 319.17 333.03 298.17 351.27 308.89 370.44 299.95 365.88 320.61 380.3 336.08 359.25 338.12 349 356.62"/></svg>